<svg width="20" height="19" viewBox="0 0 20 19" fill="none" xmlns="http://www.w3.org/2000/svg">
<path fill-rule="evenodd" clip-rule="evenodd" d="M8.97436 1.53846C4.86763 1.53846 1.53846 4.86763 1.53846 8.97436C1.53846 10.7828 2.18307 12.4387 3.25587 13.7277C3.42357 13.9292 3.4771 14.2023 3.39789 14.4522L2.64051 16.8417L5.72106 15.8713C5.88963 15.8182 6.07135 15.8247 6.23565 15.8898C7.08219 16.2254 8.00574 16.4103 8.97436 16.4103H11.0256C15.1324 16.4103 18.4615 13.0811 18.4615 8.97436C18.4615 4.86763 15.1324 1.53846 11.0256 1.53846H8.97436ZM0 8.97436C0 4.01796 4.01796 0 8.97436 0H11.0256C15.9821 0 20 4.01796 20 8.97436C20 13.9308 15.9821 17.9487 11.0256 17.9487H8.97436C7.90664 17.9487 6.88098 17.7619 5.92931 17.4187L2.63227 18.4573C1.64221 18.7692 0.711282 17.8367 1.0249 16.8472L1.80785 14.377C0.673292 12.8742 0 11.0021 0 8.97436Z" fill="#50555C"/>
</svg>
