<svg width="119" height="48" viewBox="0 0 119 48" fill="none" xmlns="http://www.w3.org/2000/svg">
<rect width="119" height="48" rx="10" fill="white"/>
<path d="M56 30C56.8284 30 57.5 30.6716 57.5 31.5C57.5 32.3284 56.8284 33 56 33C55.1716 33 54.5 32.3284 54.5 31.5C54.5 30.6716 55.1716 30 56 30Z" stroke="#36622B" stroke-width="1.5"/>
<path d="M63 30C63.8284 30 64.5 30.6716 64.5 31.5C64.5 32.3284 63.8284 33 63 33C62.1716 33 61.5 32.3284 61.5 31.5C61.5 30.6716 62.1716 30 63 30Z" stroke="#36622B" stroke-width="1.5"/>
<path d="M52.75 24C52.75 22.5646 52.7516 21.5635 52.8531 20.8081C52.9518 20.0743 53.1322 19.6858 53.409 19.409C53.6858 19.1322 54.0743 18.9518 54.8081 18.8531C55.5635 18.7516 56.5646 18.75 58 18.75H60.9172C62.5841 18.75 63.7537 18.7518 64.623 18.8752C65.4715 18.9956 65.8954 19.2151 66.1754 19.5457C66.4554 19.8762 66.6023 20.3304 66.5816 21.1872C66.5604 22.0649 66.3698 23.2189 66.0958 24.8631C65.8931 26.0793 65.7511 26.9228 65.5629 27.5551C65.3807 28.1672 65.1794 28.4911 64.913 28.7168C64.6465 28.9425 64.294 29.0878 63.6602 29.1669C63.0056 29.2486 62.1503 29.25 60.9172 29.25H58C56.5646 29.25 55.5635 29.2484 54.8081 29.1469C54.0743 29.0482 53.6858 28.8678 53.409 28.591C53.1322 28.3142 52.9518 27.9257 52.8531 27.1919C52.7516 26.4365 52.75 25.4354 52.75 24Z" stroke="#36622B" stroke-width="1.5"/>
<path d="M52.75 23.5V17C52.75 15.8954 51.8546 15 50.75 15H49.5" stroke="#36622B" stroke-width="1.5" stroke-linecap="round"/>
</svg>
