<svg width="22" height="21" viewBox="0 0 22 21" fill="none" xmlns="http://www.w3.org/2000/svg">
<path d="M0.282301 7.62533C-0.0420907 7.88484 -0.0946847 8.35819 0.164829 8.68259C0.424343 9.00698 0.897692 9.05957 1.22208 8.80006L0.282301 7.62533ZM9.52838 1.19174L9.99827 1.7791L9.99828 1.77909L9.52838 1.19174ZM12.0345 1.19174L11.5646 1.77909L11.5646 1.7791L12.0345 1.19174ZM20.3408 8.80006C20.6652 9.05957 21.1385 9.00698 21.398 8.68259C21.6575 8.35819 21.6049 7.88484 21.2806 7.62533L20.3408 8.80006ZM8.25168 2.24473L8.72601 2.82851L8.72602 2.82851L8.25168 2.24473ZM4.23999 5.50423L3.76566 4.92044L3.76566 4.92044L4.23999 5.50423ZM2.95273 6.80098L2.27355 6.4777L2.27354 6.47771L2.95273 6.80098ZM3.93304 19.0728L4.46492 18.5409L4.4649 18.5409L3.93304 19.0728ZM17.6298 19.0728L17.0979 18.5408L17.0979 18.5409L17.6298 19.0728ZM18.6102 6.80098L19.2894 6.47774L19.2893 6.4776L18.6102 6.80098ZM17.3229 5.50423L17.7972 4.92046L17.7972 4.92044L17.3229 5.50423ZM13.3112 2.24473L13.7855 1.66094L13.7855 1.66094L13.3112 2.24473ZM8.52485 13.7288C8.10943 13.7288 7.77266 14.0655 7.77266 14.481C7.77266 14.8964 8.10943 15.2332 8.52485 15.2332V13.7288ZM13.038 15.2332C13.4534 15.2332 13.7902 14.8964 13.7902 14.481C13.7902 14.0655 13.4534 13.7288 13.038 13.7288V15.2332ZM1.22208 8.80006L9.99827 1.7791L9.05848 0.604373L0.282301 7.62533L1.22208 8.80006ZM9.99828 1.77909C10.4561 1.41282 11.1068 1.41282 11.5646 1.77909L12.5044 0.604384C11.4971 -0.201462 10.0657 -0.201462 9.05847 0.604384L9.99828 1.77909ZM11.5646 1.7791L20.3408 8.80006L21.2806 7.62533L12.5044 0.604373L11.5646 1.7791ZM7.77736 1.66094L3.76566 4.92044L4.71432 6.08802L8.72601 2.82851L7.77736 1.66094ZM3.76566 4.92044C3.09278 5.46716 2.55836 5.87934 2.27355 6.4777L3.63191 7.12426C3.73649 6.90453 3.93046 6.7249 4.71432 6.08801L3.76566 4.92044ZM2.27354 6.47771C1.98875 7.07607 2.00585 7.75076 2.00585 8.61777H3.51023C3.51023 7.60778 3.52733 7.34397 3.63191 7.12424L2.27354 6.47771ZM2.00585 8.61777V12.2244H3.51023V8.61777H2.00585ZM2.00585 12.2244C2.00585 14.0942 2.00425 15.5723 2.15943 16.7265C2.31752 17.9024 2.6506 18.8541 3.40117 19.6046L4.4649 18.5409C4.04047 18.1165 3.78606 17.5351 3.6504 16.5261C3.51183 15.4954 3.51023 14.1368 3.51023 12.2244H2.00585ZM3.40115 19.6046C4.1517 20.3552 5.10343 20.6883 6.27928 20.8464C7.43349 21.0016 8.91156 21 10.7814 21V19.4956C8.86903 19.4956 7.51041 19.494 6.47974 19.3554C5.47071 19.2197 4.88937 18.9653 4.46492 18.5409L3.40115 19.6046ZM10.7814 21C12.6513 21 14.1294 21.0016 15.2836 20.8464C16.4594 20.6883 17.4112 20.3552 18.1617 19.6046L17.0979 18.5409C16.6735 18.9653 16.0922 19.2197 15.0831 19.3554C14.0524 19.494 12.6938 19.4956 10.7814 19.4956V21ZM18.1617 19.6047C18.9122 18.8541 19.2453 17.9024 19.4034 16.7265C19.5586 15.5723 19.557 14.0942 19.557 12.2244H18.0526C18.0526 14.1368 18.051 15.4954 17.9125 16.5261C17.7768 17.5351 17.5224 18.1164 17.0979 18.5408L18.1617 19.6047ZM19.557 12.2244V8.61777H18.0526V12.2244H19.557ZM19.557 8.61777C19.557 7.75076 19.5741 7.07609 19.2894 6.47774L17.931 7.12422C18.0355 7.34395 18.0526 7.60778 18.0526 8.61777H19.557ZM19.2893 6.4776C19.0044 5.87934 18.4701 5.46721 17.7972 4.92046L16.8486 6.088C17.6323 6.72486 17.8263 6.90453 17.931 7.12435L19.2893 6.4776ZM17.7972 4.92044L13.7855 1.66094L12.8369 2.82851L16.8486 6.08802L17.7972 4.92044ZM13.7855 1.66094C13.1943 1.18053 12.6989 0.776336 12.259 0.500121C11.8017 0.212935 11.3319 0.0157384 10.7814 0.0157384V1.52012C10.9431 1.52012 11.1324 1.56906 11.459 1.77414C11.803 1.99019 12.2164 2.32439 12.8369 2.82851L13.7855 1.66094ZM10.7814 0.0157384C10.2309 0.0157384 9.76119 0.212934 9.30386 0.500122C8.864 0.776339 8.36861 1.18054 7.77735 1.66094L8.72602 2.82851C9.34646 2.32439 9.75985 1.99019 10.1039 1.77414C10.4305 1.56906 10.6197 1.52012 10.7814 1.52012V0.0157384ZM8.52485 15.2332H13.038V13.7288H8.52485V15.2332Z" fill="#C6E377"/>
</svg>
