<svg width="119" height="48" viewBox="0 0 119 48" fill="none" xmlns="http://www.w3.org/2000/svg">
<rect width="119" height="48" rx="10" fill="white"/>
<path d="M68.25 24C68.25 18.8914 64.1086 14.75 59 14.75C53.8914 14.75 49.75 18.8914 49.75 24C49.75 29.1086 53.8914 33.25 59 33.25C64.1086 33.25 68.25 29.1086 68.25 24Z" stroke="#36622B" stroke-width="1.5"/>
<path d="M57.7707 22.1287L60.4962 21.2436C61.2731 20.9913 62.0085 21.7266 61.7561 22.5036L60.8711 25.229C60.7722 25.5336 60.5334 25.7724 60.2288 25.8713L57.5034 26.7564C56.7264 27.0087 55.9911 26.2734 56.2434 25.4964L57.1285 22.7709C57.2274 22.4664 57.4662 22.2276 57.7707 22.1287Z" stroke="#36622B" stroke-width="1.5"/>
</svg>
