<svg width="119" height="48" viewBox="0 0 119 48" fill="none" xmlns="http://www.w3.org/2000/svg">
<rect width="119" height="48" rx="10" fill="white"/>
<path d="M61.5 14.75H58.5C57.5335 14.75 56.75 15.5335 56.75 16.5C56.75 17.4665 57.5335 18.25 58.5 18.25H61.5C62.4665 18.25 63.25 17.4665 63.25 16.5C63.25 15.5335 62.4665 14.75 61.5 14.75Z" stroke="#C6E377" stroke-width="1.5"/>
<path fill-rule="evenodd" clip-rule="evenodd" d="M56.0465 16.0331C56.016 16.1939 56 16.3598 56 16.5294C56 16.8829 56.0693 17.2201 56.195 17.5284C55.6634 17.5475 55.2091 17.5795 54.8108 17.6331C53.8879 17.7572 53.4929 17.9716 53.2322 18.2322C52.9716 18.4929 52.7571 18.8879 52.6331 19.8108C52.5032 20.7769 52.5 22.072 52.5 24V26C52.5 27.928 52.5032 29.2231 52.6331 30.1892C52.7571 31.1121 52.9716 31.5071 53.2322 31.7678C53.4929 32.0284 53.8879 32.2429 54.8108 32.3669C55.7769 32.4968 57.072 32.5 59 32.5H61C62.928 32.5 64.2231 32.4968 65.1892 32.3669C66.1121 32.2429 66.5071 32.0284 66.7678 31.7678C67.0284 31.5071 67.2428 31.1121 67.3669 30.1892C67.4968 29.2231 67.5 27.928 67.5 26V24C67.5 22.072 67.4968 20.7769 67.3669 19.8108C67.2428 18.8879 67.0284 18.4929 66.7678 18.2322C66.5071 17.9716 66.1121 17.7572 65.1892 17.6331C64.7909 17.5795 64.3366 17.5475 63.805 17.5284C63.9307 17.2201 64 16.8829 64 16.5294C64 16.3598 63.984 16.1939 63.9535 16.0331C65.8533 16.1086 67.0136 16.3567 67.8284 17.1716C69 18.3432 69 20.2288 69 24V26C69 29.7712 69 31.6569 67.8284 32.8284C66.6569 34 64.7712 34 61 34H59C55.2288 34 53.3431 34 52.1716 32.8284C51 31.6569 51 29.7712 51 26V24C51 20.2288 51 18.3432 52.1716 17.1716C52.9864 16.3567 54.1467 16.1086 56.0465 16.0331Z" fill="#C6E377"/>
<path d="M58 25.5L59.5 27L62.5 24" stroke="#C6E377" stroke-width="1.5" stroke-linecap="round" stroke-linejoin="round"/>
</svg>
